<mxfile host="app.diagrams.net" agent="Mozilla/5.0 (Windows NT 10.0; Win64; x64) AppleWebKit/537.36 (KHTML, like Gecko) Chrome/136.0.0.0 Safari/537.36" version="26.1.2">
  <diagram name="Страница — 1" id="_TnyUx86zjikDra2yhVV">
    <mxGraphModel dx="1195" dy="643" grid="1" gridSize="10" guides="1" tooltips="1" connect="1" arrows="1" fold="1" page="1" pageScale="1" pageWidth="827" pageHeight="1169" math="0" shadow="0">
      <root>
        <mxCell id="0" />
        <mxCell id="1" parent="0" />
        <mxCell id="OUzTZberV37oX_3jWxKB-1" value="flask-cm-spectr&lt;br&gt;(центр мониторинга)" style="rounded=0;whiteSpace=wrap;html=1;" parent="1" vertex="1">
          <mxGeometry x="310" y="250" width="120" height="60" as="geometry" />
        </mxCell>
        <mxCell id="OUzTZberV37oX_3jWxKB-2" value="CM DB" style="shape=cylinder3;whiteSpace=wrap;html=1;boundedLbl=1;backgroundOutline=1;size=15;" parent="1" vertex="1">
          <mxGeometry x="485" y="50" width="110" height="70" as="geometry" />
        </mxCell>
        <mxCell id="OUzTZberV37oX_3jWxKB-28" style="edgeStyle=orthogonalEdgeStyle;rounded=0;orthogonalLoop=1;jettySize=auto;html=1;exitX=0.5;exitY=1;exitDx=0;exitDy=0;" parent="1" source="OUzTZberV37oX_3jWxKB-3" target="OUzTZberV37oX_3jWxKB-1" edge="1">
          <mxGeometry relative="1" as="geometry" />
        </mxCell>
        <mxCell id="OUzTZberV37oX_3jWxKB-3" value="cm-virtual-operator" style="rounded=0;whiteSpace=wrap;html=1;" parent="1" vertex="1">
          <mxGeometry x="310" y="90" width="120" height="60" as="geometry" />
        </mxCell>
        <mxCell id="OUzTZberV37oX_3jWxKB-23" style="edgeStyle=orthogonalEdgeStyle;rounded=0;orthogonalLoop=1;jettySize=auto;html=1;exitX=1;exitY=0.75;exitDx=0;exitDy=0;entryX=0;entryY=0.25;entryDx=0;entryDy=0;" parent="1" source="OUzTZberV37oX_3jWxKB-4" target="OUzTZberV37oX_3jWxKB-1" edge="1">
          <mxGeometry relative="1" as="geometry" />
        </mxCell>
        <mxCell id="OUzTZberV37oX_3jWxKB-35" style="edgeStyle=orthogonalEdgeStyle;rounded=0;orthogonalLoop=1;jettySize=auto;html=1;exitX=0.75;exitY=1;exitDx=0;exitDy=0;" parent="1" source="OUzTZberV37oX_3jWxKB-4" target="OUzTZberV37oX_3jWxKB-6" edge="1">
          <mxGeometry relative="1" as="geometry" />
        </mxCell>
        <mxCell id="OUzTZberV37oX_3jWxKB-4" value="flask-db-cashing" style="rounded=0;whiteSpace=wrap;html=1;" parent="1" vertex="1">
          <mxGeometry x="70" y="130" width="120" height="60" as="geometry" />
        </mxCell>
        <mxCell id="OUzTZberV37oX_3jWxKB-27" style="edgeStyle=orthogonalEdgeStyle;rounded=0;orthogonalLoop=1;jettySize=auto;html=1;exitX=0;exitY=0.5;exitDx=0;exitDy=0;entryX=0.5;entryY=1;entryDx=0;entryDy=0;" parent="1" source="OUzTZberV37oX_3jWxKB-5" target="OUzTZberV37oX_3jWxKB-1" edge="1">
          <mxGeometry relative="1" as="geometry" />
        </mxCell>
        <mxCell id="h9m-6b8rw-HpVbpuJSnM-9" style="edgeStyle=orthogonalEdgeStyle;rounded=0;orthogonalLoop=1;jettySize=auto;html=1;exitX=0.25;exitY=0;exitDx=0;exitDy=0;" edge="1" parent="1" source="OUzTZberV37oX_3jWxKB-5" target="OUzTZberV37oX_3jWxKB-2">
          <mxGeometry relative="1" as="geometry" />
        </mxCell>
        <mxCell id="h9m-6b8rw-HpVbpuJSnM-13" style="edgeStyle=orthogonalEdgeStyle;rounded=0;orthogonalLoop=1;jettySize=auto;html=1;exitX=0.5;exitY=1;exitDx=0;exitDy=0;entryX=0;entryY=0.5;entryDx=0;entryDy=0;" edge="1" parent="1" source="OUzTZberV37oX_3jWxKB-5" target="OUzTZberV37oX_3jWxKB-13">
          <mxGeometry relative="1" as="geometry" />
        </mxCell>
        <mxCell id="OUzTZberV37oX_3jWxKB-5" value="cm-xml-1c-parsers" style="rounded=0;whiteSpace=wrap;html=1;" parent="1" vertex="1">
          <mxGeometry x="510" y="190" width="120" height="60" as="geometry" />
        </mxCell>
        <mxCell id="OUzTZberV37oX_3jWxKB-6" value="Wialon" style="ellipse;shape=cloud;whiteSpace=wrap;html=1;" parent="1" vertex="1">
          <mxGeometry x="100" y="390" width="120" height="80" as="geometry" />
        </mxCell>
        <mxCell id="OUzTZberV37oX_3jWxKB-7" value="Cesar &lt;br&gt;Position" style="ellipse;shape=cloud;whiteSpace=wrap;html=1;" parent="1" vertex="1">
          <mxGeometry y="310" width="120" height="80" as="geometry" />
        </mxCell>
        <mxCell id="OUzTZberV37oX_3jWxKB-10" value="1C ERM" style="ellipse;shape=cloud;whiteSpace=wrap;html=1;" parent="1" vertex="1">
          <mxGeometry x="585" y="520" width="120" height="80" as="geometry" />
        </mxCell>
        <mxCell id="OUzTZberV37oX_3jWxKB-13" value="exchange server" style="shape=process;whiteSpace=wrap;html=1;backgroundOutline=1;" parent="1" vertex="1">
          <mxGeometry x="595" y="370" width="100" height="60" as="geometry" />
        </mxCell>
        <mxCell id="OUzTZberV37oX_3jWxKB-30" style="edgeStyle=orthogonalEdgeStyle;rounded=0;orthogonalLoop=1;jettySize=auto;html=1;exitX=0;exitY=0.5;exitDx=0;exitDy=0;entryX=0.319;entryY=0.088;entryDx=0;entryDy=0;entryPerimeter=0;" parent="1" source="OUzTZberV37oX_3jWxKB-4" target="OUzTZberV37oX_3jWxKB-7" edge="1">
          <mxGeometry relative="1" as="geometry" />
        </mxCell>
        <mxCell id="OUzTZberV37oX_3jWxKB-36" style="edgeStyle=orthogonalEdgeStyle;rounded=0;orthogonalLoop=1;jettySize=auto;html=1;exitX=0;exitY=0.5;exitDx=0;exitDy=0;entryX=0.625;entryY=0.2;entryDx=0;entryDy=0;entryPerimeter=0;" parent="1" source="OUzTZberV37oX_3jWxKB-1" target="OUzTZberV37oX_3jWxKB-6" edge="1">
          <mxGeometry relative="1" as="geometry" />
        </mxCell>
        <mxCell id="OUzTZberV37oX_3jWxKB-37" value="&lt;h1 style=&quot;margin-top: 0px;&quot;&gt;Интеграционная схема сервисов&lt;/h1&gt;" style="text;html=1;whiteSpace=wrap;overflow=hidden;rounded=0;" parent="1" vertex="1">
          <mxGeometry x="607" width="220" height="140" as="geometry" />
        </mxCell>
        <mxCell id="h9m-6b8rw-HpVbpuJSnM-2" style="edgeStyle=orthogonalEdgeStyle;rounded=0;orthogonalLoop=1;jettySize=auto;html=1;exitX=0.5;exitY=0;exitDx=0;exitDy=0;entryX=0;entryY=0;entryDx=0;entryDy=15;entryPerimeter=0;" edge="1" parent="1" source="OUzTZberV37oX_3jWxKB-4" target="OUzTZberV37oX_3jWxKB-2">
          <mxGeometry relative="1" as="geometry" />
        </mxCell>
        <mxCell id="h9m-6b8rw-HpVbpuJSnM-3" style="edgeStyle=orthogonalEdgeStyle;rounded=0;orthogonalLoop=1;jettySize=auto;html=1;exitX=1;exitY=0.5;exitDx=0;exitDy=0;entryX=0;entryY=0.5;entryDx=0;entryDy=0;entryPerimeter=0;" edge="1" parent="1" source="OUzTZberV37oX_3jWxKB-3" target="OUzTZberV37oX_3jWxKB-2">
          <mxGeometry relative="1" as="geometry" />
        </mxCell>
        <mxCell id="h9m-6b8rw-HpVbpuJSnM-10" style="edgeStyle=orthogonalEdgeStyle;rounded=0;orthogonalLoop=1;jettySize=auto;html=1;exitX=0.25;exitY=1;exitDx=0;exitDy=0;" edge="1" parent="1" source="h9m-6b8rw-HpVbpuJSnM-6" target="OUzTZberV37oX_3jWxKB-1">
          <mxGeometry relative="1" as="geometry" />
        </mxCell>
        <mxCell id="h9m-6b8rw-HpVbpuJSnM-14" style="edgeStyle=orthogonalEdgeStyle;rounded=0;orthogonalLoop=1;jettySize=auto;html=1;exitX=0.5;exitY=1;exitDx=0;exitDy=0;entryX=1;entryY=0.5;entryDx=0;entryDy=0;" edge="1" parent="1" source="h9m-6b8rw-HpVbpuJSnM-6" target="OUzTZberV37oX_3jWxKB-13">
          <mxGeometry relative="1" as="geometry" />
        </mxCell>
        <mxCell id="h9m-6b8rw-HpVbpuJSnM-6" value="cm-mail-sender" style="rounded=0;whiteSpace=wrap;html=1;" vertex="1" parent="1">
          <mxGeometry x="657" y="190" width="120" height="60" as="geometry" />
        </mxCell>
        <mxCell id="h9m-6b8rw-HpVbpuJSnM-8" style="edgeStyle=orthogonalEdgeStyle;rounded=0;orthogonalLoop=1;jettySize=auto;html=1;exitX=0.75;exitY=0;exitDx=0;exitDy=0;entryX=0.145;entryY=1;entryDx=0;entryDy=-4.35;entryPerimeter=0;" edge="1" parent="1" source="OUzTZberV37oX_3jWxKB-1" target="OUzTZberV37oX_3jWxKB-2">
          <mxGeometry relative="1" as="geometry" />
        </mxCell>
        <mxCell id="h9m-6b8rw-HpVbpuJSnM-15" style="edgeStyle=orthogonalEdgeStyle;rounded=0;orthogonalLoop=1;jettySize=auto;html=1;exitX=0.5;exitY=0;exitDx=0;exitDy=0;entryX=0.773;entryY=0.921;entryDx=0;entryDy=0;entryPerimeter=0;" edge="1" parent="1" source="h9m-6b8rw-HpVbpuJSnM-6" target="OUzTZberV37oX_3jWxKB-2">
          <mxGeometry relative="1" as="geometry" />
        </mxCell>
        <mxCell id="h9m-6b8rw-HpVbpuJSnM-16" value="" style="endArrow=none;dashed=1;html=1;dashPattern=1 3;strokeWidth=2;rounded=0;entryX=0.5;entryY=1;entryDx=0;entryDy=0;" edge="1" parent="1" source="OUzTZberV37oX_3jWxKB-10" target="OUzTZberV37oX_3jWxKB-13">
          <mxGeometry width="50" height="50" relative="1" as="geometry">
            <mxPoint x="360" y="410" as="sourcePoint" />
            <mxPoint x="410" y="360" as="targetPoint" />
          </mxGeometry>
        </mxCell>
      </root>
    </mxGraphModel>
  </diagram>
</mxfile>
